<svg width="184" height="29" viewBox="0 0 184 29" fill="none" xmlns="http://www.w3.org/2000/svg">
<path d="M38.5145 22.7012V20.6529L46.6599 9.22373H38.4986V6.37841H50.9957V8.42672L42.8423 19.8558H51.0116V22.7012H38.5145ZM53.564 22.7012V20.2145L59.3742 14.8347C59.8684 14.3565 60.2828 13.9261 60.6176 13.5435C60.9576 13.161 61.2153 12.7864 61.3907 12.4197C61.566 12.0478 61.6537 11.6466 61.6537 11.2163C61.6537 10.7381 61.5448 10.3263 61.3269 9.98089C61.1091 9.63021 60.8115 9.36188 60.4343 9.17591C60.057 8.98463 59.6293 8.88899 59.1511 8.88899C58.6516 8.88899 58.2159 8.98995 57.844 9.19185C57.4721 9.39376 57.1851 9.68334 56.9832 10.0606C56.7813 10.4378 56.6804 10.8868 56.6804 11.4075H53.4046C53.4046 10.3395 53.6464 9.41236 54.1299 8.62598C54.6134 7.83959 55.2909 7.23121 56.1623 6.80082C57.0337 6.37044 58.0379 6.15525 59.175 6.15525C60.3439 6.15525 61.3615 6.36247 62.2275 6.77691C63.0989 7.18605 63.7764 7.75458 64.2599 8.48252C64.7434 9.21045 64.9852 10.0447 64.9852 10.9851C64.9852 11.6015 64.863 12.2099 64.6186 12.8103C64.3795 13.4107 63.9517 14.0775 63.3354 14.8108C62.719 15.5387 61.8503 16.4128 60.7292 17.4329L58.3461 19.7682V19.8798H65.2004V22.7012H53.564ZM74.8024 6.37841V22.7012H71.3513V9.65412H71.2557L67.5177 11.9973V8.93681L71.5585 6.37841H74.8024ZM86.9209 6.37841L90.8661 18.7799H91.0175L94.9707 6.37841H98.7963L93.1695 22.7012H88.7221L83.0873 6.37841H86.9209ZM104.895 22.9403C103.636 22.9403 102.552 22.6852 101.644 22.1751C100.74 21.6597 100.044 20.9318 99.5555 19.9913C99.0667 19.0456 98.8223 17.9271 98.8223 16.6359C98.8223 15.3767 99.0667 14.2715 99.5555 13.3204C100.044 12.3693 100.732 11.628 101.62 11.0967C102.512 10.5654 103.559 10.2997 104.76 10.2997C105.568 10.2997 106.319 10.4299 107.016 10.6902C107.717 10.9453 108.328 11.3305 108.849 11.8459C109.375 12.3613 109.784 13.0095 110.076 13.7906C110.368 14.5664 110.514 15.4749 110.514 16.5164V17.4489H100.177V15.3448H107.318C107.318 14.8559 107.212 14.4229 107 14.0456C106.787 13.6684 106.492 13.3735 106.115 13.161C105.743 12.9431 105.31 12.8342 104.816 12.8342C104.3 12.8342 103.843 12.9537 103.445 13.1928C103.052 13.4266 102.744 13.7428 102.52 14.1413C102.297 14.5345 102.183 14.9728 102.178 15.4564V17.4568C102.178 18.0626 102.289 18.5859 102.512 19.027C102.741 19.468 103.062 19.808 103.477 20.0471C103.891 20.2862 104.383 20.4058 104.951 20.4058C105.329 20.4058 105.674 20.3526 105.987 20.2464C106.301 20.1401 106.569 19.9807 106.792 19.7682C107.016 19.5556 107.186 19.2953 107.302 18.9871L110.443 19.1943C110.283 19.9488 109.956 20.6077 109.462 21.1709C108.974 21.7288 108.341 22.1645 107.565 22.478C106.795 22.7862 105.905 22.9403 104.895 22.9403ZM116.125 15.6237V22.7012H112.73V10.4591H115.966V12.619H116.109C116.38 11.907 116.835 11.3438 117.472 10.9293C118.11 10.5096 118.883 10.2997 119.792 10.2997C120.642 10.2997 121.383 10.4857 122.015 10.8576C122.648 11.2295 123.139 11.7609 123.49 12.4516C123.84 13.1371 124.016 13.9553 124.016 14.9064V22.7012H120.62V15.5121C120.626 14.763 120.435 14.1785 120.047 13.7587C119.659 13.3336 119.125 13.1211 118.445 13.1211C117.988 13.1211 117.584 13.2194 117.233 13.416C116.888 13.6126 116.617 13.8995 116.42 14.2768C116.229 14.6487 116.131 15.0977 116.125 15.6237ZM133.203 10.4591V13.0095H125.831V10.4591H133.203ZM127.505 7.5261H130.9V18.9393C130.9 19.2528 130.948 19.4972 131.043 19.6725C131.139 19.8426 131.272 19.9621 131.442 20.0312C131.617 20.1003 131.819 20.1348 132.048 20.1348C132.207 20.1348 132.366 20.1215 132.526 20.0949C132.685 20.0631 132.807 20.0392 132.892 20.0232L133.426 22.5497C133.256 22.6029 133.017 22.664 132.709 22.7331C132.401 22.8074 132.026 22.8526 131.585 22.8685C130.767 22.9004 130.05 22.7915 129.433 22.5418C128.822 22.292 128.347 21.9042 128.007 21.3781C127.667 20.8521 127.499 20.1879 127.505 19.3856V7.5261ZM143.266 17.4887V10.4591H146.661V22.7012H143.401V20.4775H143.273C142.997 21.1948 142.538 21.7713 141.895 22.207C141.257 22.6427 140.479 22.8606 139.559 22.8606C138.741 22.8606 138.021 22.6746 137.4 22.3027C136.778 21.9307 136.292 21.402 135.941 20.7166C135.596 20.0312 135.42 19.2103 135.415 18.2539V10.4591H138.81V17.6481C138.816 18.3708 139.009 18.9419 139.392 19.3617C139.775 19.7815 140.287 19.9913 140.93 19.9913C141.339 19.9913 141.722 19.8984 142.078 19.7124C142.434 19.5211 142.721 19.2395 142.939 18.8676C143.162 18.4956 143.271 18.036 143.266 17.4887ZM149.377 22.7012V10.4591H152.668V12.5951H152.796C153.019 11.8353 153.394 11.2614 153.92 10.8735C154.446 10.4804 155.051 10.2838 155.737 10.2838C155.907 10.2838 156.09 10.2944 156.287 10.3156C156.483 10.3369 156.656 10.3661 156.805 10.4033V13.416C156.645 13.3682 156.425 13.3257 156.143 13.2885C155.862 13.2513 155.604 13.2327 155.37 13.2327C154.871 13.2327 154.424 13.3416 154.031 13.5595C153.643 13.772 153.335 14.0696 153.107 14.4521C152.883 14.8347 152.772 15.2757 152.772 15.7752V22.7012H149.377ZM163.569 22.9403C162.31 22.9403 161.226 22.6852 160.318 22.1751C159.414 21.6597 158.718 20.9318 158.229 19.9913C157.741 19.0456 157.496 17.9271 157.496 16.6359C157.496 15.3767 157.741 14.2715 158.229 13.3204C158.718 12.3693 159.406 11.628 160.294 11.0967C161.186 10.5654 162.233 10.2997 163.434 10.2997C164.241 10.2997 164.993 10.4299 165.689 10.6902C166.391 10.9453 167.002 11.3305 167.523 11.8459C168.049 12.3613 168.458 13.0095 168.75 13.7906C169.042 14.5664 169.188 15.4749 169.188 16.5164V17.4489H158.851V15.3448H165.992C165.992 14.8559 165.886 14.4229 165.673 14.0456C165.461 13.6684 165.166 13.3735 164.789 13.161C164.417 12.9431 163.984 12.8342 163.49 12.8342C162.974 12.8342 162.517 12.9537 162.119 13.1928C161.726 13.4266 161.417 13.7428 161.194 14.1413C160.971 14.5345 160.857 14.9728 160.852 15.4564V17.4568C160.852 18.0626 160.963 18.5859 161.186 19.027C161.415 19.468 161.736 19.808 162.151 20.0471C162.565 20.2862 163.057 20.4058 163.625 20.4058C164.002 20.4058 164.348 20.3526 164.661 20.2464C164.975 20.1401 165.243 19.9807 165.466 19.7682C165.689 19.5556 165.859 19.2953 165.976 18.9871L169.117 19.1943C168.957 19.9488 168.63 20.6077 168.136 21.1709C167.647 21.7288 167.015 22.1645 166.239 22.478C165.469 22.7862 164.579 22.9403 163.569 22.9403ZM181.59 13.95L178.481 14.1413C178.428 13.8756 178.314 13.6365 178.139 13.424C177.963 13.2061 177.732 13.0334 177.445 12.9059C177.164 12.7731 176.826 12.7067 176.433 12.7067C175.907 12.7067 175.463 12.8182 175.102 13.0414C174.741 13.2593 174.56 13.5515 174.56 13.9181C174.56 14.2104 174.677 14.4574 174.911 14.6593C175.145 14.8613 175.546 15.0233 176.114 15.1455L178.33 15.5918C179.52 15.8363 180.408 16.2295 180.992 16.7714C181.576 17.3134 181.869 18.0254 181.869 18.9074C181.869 19.7097 181.632 20.4138 181.159 21.0195C180.692 21.6252 180.049 22.0981 179.231 22.4382C178.418 22.7729 177.48 22.9403 176.417 22.9403C174.797 22.9403 173.505 22.6029 172.544 21.9281C171.587 21.248 171.027 20.3234 170.862 19.1545L174.201 18.9791C174.302 19.4733 174.547 19.8505 174.935 20.1109C175.323 20.3659 175.819 20.4935 176.425 20.4935C177.02 20.4935 177.498 20.3792 177.86 20.1507C178.226 19.917 178.412 19.6167 178.418 19.2501C178.412 18.9419 178.282 18.6896 178.027 18.493C177.772 18.2911 177.379 18.137 176.848 18.0307L174.727 17.6083C173.532 17.3692 172.642 16.9547 172.057 16.3649C171.478 15.7752 171.189 15.0233 171.189 14.1094C171.189 13.323 171.401 12.6456 171.826 12.077C172.257 11.5085 172.86 11.0701 173.636 10.762C174.417 10.4538 175.331 10.2997 176.377 10.2997C177.923 10.2997 179.14 10.6265 180.028 11.28C180.92 11.9336 181.441 12.8236 181.59 13.95Z" fill="white"/>
<circle cx="14.8274" cy="14.0274" r="14.0274" fill="white"/>
<path d="M12.6275 7.2124H15.7392C17.4812 7.2124 18.4687 9.20821 17.4119 10.593L12.4019 17.1578C11.3451 18.5426 12.3326 20.5384 14.0746 20.5384H17.1864" stroke="#BE3222" stroke-width="1.40274" stroke-linecap="round" stroke-linejoin="round"/>
<circle cx="9.18351" cy="7.33124" r="1.36982" fill="#BE3222"/>
<rect x="19.737" y="18.2356" width="1.40274" height="4.20821" rx="0.701369" fill="#BE3222"/>
</svg>
