<svg width="125" height="20" viewBox="0 0 125 20" fill="none" xmlns="http://www.w3.org/2000/svg">
<path d="M25.8071 15.4799V14.0782L31.3809 6.25757H25.7962V4.31058H34.3477V5.71219L28.7685 13.5329H34.3586V15.4799H25.8071ZM36.1052 15.4799V13.7783L40.081 10.097C40.4191 9.76978 40.7027 9.47528 40.9318 9.2135C41.1644 8.95172 41.3408 8.6954 41.4608 8.44452C41.5807 8.19001 41.6407 7.91551 41.6407 7.62101C41.6407 7.29378 41.5662 7.01201 41.4171 6.77568C41.2681 6.53571 41.0645 6.3521 40.8063 6.22485C40.5482 6.09396 40.2555 6.02851 39.9283 6.02851C39.5865 6.02851 39.2884 6.09759 39.0338 6.23576C38.7793 6.37392 38.583 6.57207 38.4448 6.83021C38.3067 7.08836 38.2376 7.39559 38.2376 7.7519H35.9961C35.9961 7.02109 36.1615 6.38664 36.4924 5.84854C36.8233 5.31044 37.2868 4.89413 37.8831 4.59963C38.4794 4.30513 39.1666 4.15788 39.9446 4.15788C40.7445 4.15788 41.4408 4.29967 42.0334 4.58327C42.6297 4.86323 43.0933 5.25226 43.4241 5.75037C43.755 6.24848 43.9204 6.81931 43.9204 7.46285C43.9204 7.8846 43.8368 8.30091 43.6695 8.71176C43.5059 9.12261 43.2132 9.5789 42.7915 10.0806C42.3697 10.5788 41.7753 11.1769 41.0081 11.8749L39.3774 13.4729V13.5492H44.0677V15.4799H36.1052ZM50.6381 4.31058V15.4799H48.2766V6.55207H48.2111L45.6533 8.15547V6.06124L48.4184 4.31058H50.6381ZM58.9305 4.31058L61.6301 12.7966H61.7337L64.4388 4.31058H67.0566L63.2062 15.4799H60.163L56.3072 4.31058H58.9305ZM71.2301 15.6435C70.3684 15.6435 69.6266 15.469 69.0049 15.1199C68.3868 14.7672 67.9105 14.2691 67.576 13.6256C67.2415 12.9784 67.0743 12.2131 67.0743 11.3296C67.0743 10.4679 67.2415 9.71161 67.576 9.0608C67.9105 8.40998 68.3814 7.90278 68.9886 7.5392C69.5994 7.17562 70.3156 6.99383 71.1373 6.99383C71.69 6.99383 72.2045 7.0829 72.6807 7.26106C73.1607 7.43558 73.5788 7.69918 73.9351 8.05185C74.2951 8.40453 74.575 8.8481 74.775 9.38257C74.975 9.9134 75.0749 10.5351 75.0749 11.2477V11.8858H68.0014V10.446H72.888C72.888 10.1116 72.8153 9.81523 72.6698 9.55709C72.5244 9.29894 72.3226 9.09715 72.0645 8.95172C71.81 8.80265 71.5136 8.72812 71.1755 8.72812C70.8228 8.72812 70.5102 8.80992 70.2375 8.97354C69.9684 9.13351 69.7575 9.34985 69.6048 9.62253C69.4521 9.89158 69.374 10.1915 69.3703 10.5224V11.8913C69.3703 12.3058 69.4467 12.6639 69.5994 12.9657C69.7557 13.2675 69.9757 13.5001 70.2593 13.6638C70.5429 13.8274 70.8792 13.9092 71.2682 13.9092C71.5264 13.9092 71.7627 13.8728 71.9772 13.8001C72.1917 13.7274 72.3753 13.6183 72.528 13.4729C72.6807 13.3274 72.7971 13.1493 72.8771 12.9384L75.0259 13.0802C74.9168 13.5965 74.6932 14.0473 74.355 14.4327C74.0206 14.8145 73.5879 15.1126 73.0571 15.3272C72.5299 15.538 71.9209 15.6435 71.2301 15.6435ZM78.9144 10.6369V15.4799H76.5911V7.1029H78.8053V8.58087H78.9035C79.0889 8.09367 79.3998 7.70827 79.8361 7.42467C80.2724 7.13744 80.8014 6.99383 81.4231 6.99383C82.0048 6.99383 82.512 7.12108 82.9447 7.37559C83.3774 7.6301 83.7137 7.99368 83.9536 8.46634C84.1936 8.93536 84.3136 9.49528 84.3136 10.1461V15.4799H81.9903V10.5606C81.9939 10.0479 81.863 9.64798 81.5976 9.36075C81.3322 9.06989 80.9668 8.92445 80.5014 8.92445C80.1887 8.92445 79.9124 8.99172 79.6725 9.12624C79.4361 9.26077 79.2507 9.4571 79.1162 9.71525C78.9853 9.96975 78.918 10.277 78.9144 10.6369ZM90.6004 7.1029V8.8481H85.5557V7.1029H90.6004ZM86.701 5.09592H89.0243V12.9057C89.0243 13.1202 89.057 13.2875 89.1224 13.4074C89.1879 13.5238 89.2788 13.6056 89.3951 13.6529C89.5151 13.7001 89.6533 13.7238 89.8096 13.7238C89.9187 13.7238 90.0278 13.7147 90.1368 13.6965C90.2459 13.6747 90.3295 13.6583 90.3877 13.6474L90.7531 15.3762C90.6368 15.4126 90.4731 15.4544 90.2623 15.5017C90.0514 15.5526 89.7951 15.5835 89.4933 15.5944C88.9334 15.6162 88.4425 15.5417 88.0208 15.3708C87.6027 15.1999 87.2773 14.9345 87.0446 14.5745C86.8119 14.2146 86.6973 13.7601 86.701 13.2111V5.09592ZM97.4858 11.9131V7.1029H99.8091V15.4799H97.5785V13.9583H97.4912C97.3021 14.4491 96.9876 14.8436 96.5477 15.1417C96.1114 15.4399 95.5788 15.5889 94.9498 15.5889C94.3898 15.5889 93.8972 15.4617 93.4718 15.2072C93.0464 14.9527 92.7137 14.5909 92.4738 14.1219C92.2374 13.6529 92.1174 13.0911 92.1138 12.4367V7.1029H94.4371V12.0222C94.4407 12.5167 94.5735 12.9075 94.8352 13.1947C95.097 13.482 95.4479 13.6256 95.8878 13.6256C96.1678 13.6256 96.4295 13.562 96.6731 13.4347C96.9167 13.3038 97.1131 13.1111 97.2622 12.8566C97.4149 12.6021 97.4894 12.2876 97.4858 11.9131ZM101.667 15.4799V7.1029H103.92V8.56451H104.007C104.16 8.04458 104.416 7.65191 104.776 7.3865C105.136 7.11744 105.55 6.98292 106.02 6.98292C106.136 6.98292 106.261 6.99019 106.396 7.00473C106.53 7.01928 106.649 7.03927 106.75 7.06472V9.12624C106.641 9.09352 106.49 9.06443 106.298 9.03898C106.105 9.01353 105.929 9.00081 105.769 9.00081C105.427 9.00081 105.121 9.07534 104.852 9.22441C104.587 9.36984 104.376 9.57345 104.22 9.83523C104.067 10.097 103.991 10.3988 103.991 10.7406V15.4799H101.667ZM111.379 15.6435C110.517 15.6435 109.776 15.469 109.154 15.1199C108.536 14.7672 108.06 14.2691 107.725 13.6256C107.391 12.9784 107.223 12.2131 107.223 11.3296C107.223 10.4679 107.391 9.71161 107.725 9.0608C108.06 8.40998 108.531 7.90278 109.138 7.5392C109.749 7.17562 110.465 6.99383 111.286 6.99383C111.839 6.99383 112.354 7.0829 112.83 7.26106C113.31 7.43558 113.728 7.69918 114.084 8.05185C114.444 8.40453 114.724 8.8481 114.924 9.38257C115.124 9.9134 115.224 10.5351 115.224 11.2477V11.8858H108.151V10.446H113.037C113.037 10.1116 112.964 9.81523 112.819 9.55709C112.674 9.29894 112.472 9.09715 112.214 8.95172C111.959 8.80265 111.663 8.72812 111.325 8.72812C110.972 8.72812 110.659 8.80992 110.387 8.97354C110.118 9.13351 109.907 9.34985 109.754 9.62253C109.601 9.89158 109.523 10.1915 109.519 10.5224V11.8913C109.519 12.3058 109.596 12.6639 109.749 12.9657C109.905 13.2675 110.125 13.5001 110.408 13.6638C110.692 13.8274 111.028 13.9092 111.417 13.9092C111.676 13.9092 111.912 13.8728 112.126 13.8001C112.341 13.7274 112.524 13.6183 112.677 13.4729C112.83 13.3274 112.946 13.1493 113.026 12.9384L115.175 13.0802C115.066 13.5965 114.842 14.0473 114.504 14.4327C114.17 14.8145 113.737 15.1126 113.206 15.3272C112.679 15.538 112.07 15.6435 111.379 15.6435ZM123.71 9.49164L121.583 9.62253C121.547 9.44074 121.469 9.27713 121.349 9.1317C121.229 8.98263 121.07 8.86446 120.874 8.7772C120.681 8.68631 120.451 8.64086 120.182 8.64086C119.822 8.64086 119.518 8.71721 119.271 8.86992C119.024 9.01898 118.9 9.21896 118.9 9.46983C118.9 9.6698 118.98 9.83886 119.14 9.97703C119.3 10.1152 119.574 10.2261 119.963 10.3097L121.48 10.6151C122.294 10.7824 122.901 11.0514 123.301 11.4223C123.701 11.7931 123.901 12.2803 123.901 12.8839C123.901 13.4329 123.739 13.9146 123.416 14.3291C123.096 14.7436 122.656 15.0672 122.096 15.2999C121.54 15.5289 120.898 15.6435 120.171 15.6435C119.062 15.6435 118.178 15.4126 117.52 14.9508C116.866 14.4855 116.482 13.8528 116.369 13.0529L118.654 12.933C118.724 13.2711 118.891 13.5292 119.156 13.7074C119.422 13.8819 119.762 13.9692 120.176 13.9692C120.583 13.9692 120.911 13.891 121.158 13.7347C121.409 13.5747 121.536 13.3693 121.54 13.1184C121.536 12.9075 121.447 12.7348 121.272 12.6003C121.098 12.4621 120.829 12.3567 120.465 12.284L119.014 11.9949C118.196 11.8313 117.587 11.5477 117.187 11.1441C116.791 10.7406 116.593 10.2261 116.593 9.60072C116.593 9.06261 116.738 8.59905 117.029 8.21001C117.324 7.82098 117.736 7.52102 118.267 7.31014C118.802 7.09927 119.427 6.99383 120.143 6.99383C121.201 6.99383 122.034 7.21743 122.641 7.66464C123.252 8.11184 123.608 8.72085 123.71 9.49164Z" fill="white"/>
<circle cx="9.5986" cy="9.5986" r="9.5986" fill="white"/>
<path d="M8.09324 4.93526H10.2226C11.4146 4.93526 12.0903 6.30094 11.3671 7.24853L7.93891 11.7407C7.21575 12.6882 7.89147 14.0539 9.08348 14.0539H11.2128" stroke="#BE3222" stroke-width="0.95986" stroke-linecap="round" stroke-linejoin="round"/>
<circle cx="5.73659" cy="5.01666" r="0.937333" fill="#BE3222"/>
<rect x="12.9581" y="12.4782" width="0.95986" height="2.87958" rx="0.47993" fill="#BE3222"/>
</svg>
